<svg
            xmlns="http://www.w3.org/2000/svg"
            id="answer-arrow"
          >
            <path
              d="M3.70704 11.4981L7.09704 8.10807C7.18528 8.01972 7.23728 7.90154 7.24278 7.77679C7.24829 7.65203 7.20692 7.52974 7.1268 7.43395C7.04669 7.33816 6.93363 7.27582 6.80987 7.25919C6.68611 7.24255 6.5606 7.27283 6.45804 7.34407L6.39004 7.40007L2.14704 11.6431C2.06436 11.7259 2.01338 11.8352 2.00296 11.9517C1.99255 12.0683 2.02336 12.1849 2.09004 12.2811L2.14704 12.3511L6.39004 16.5931C6.47823 16.6817 6.5964 16.734 6.72126 16.7398C6.84613 16.7456 6.96863 16.7044 7.06462 16.6243C7.16062 16.5442 7.22314 16.4311 7.23988 16.3073C7.25662 16.1834 7.22635 16.0577 7.15504 15.9551L7.09704 15.8851L3.70804 12.4971H10C11.9472 12.497 13.8181 11.7397 15.217 10.3852C16.6159 9.03073 17.4332 7.18526 17.496 5.23907L17.5 4.99707C17.5 4.86446 17.4474 4.73728 17.3536 4.64352C17.2598 4.54975 17.1326 4.49707 17 4.49707C16.8674 4.49707 16.7403 4.54975 16.6465 4.64352C16.5527 4.73728 16.5 4.86446 16.5 4.99707C16.4998 6.68049 15.8465 8.29818 14.6776 9.50961C13.5087 10.721 11.9154 11.4317 10.233 11.4921L10 11.4971H3.70704V11.4981Z"
              fill="black"
            />
          </svg>
