<svg width="18" height="15" viewBox="0 0 18 15" fill="none" xmlns="http://www.w3.org/2000/svg">
<path d="M17.6475 7.89763L10.8975 14.6476C10.7909 14.747 10.6498 14.8011 10.5041 14.7985C10.3584 14.7959 10.2193 14.7369 10.1163 14.6338C10.0132 14.5308 9.95419 14.3917 9.95162 14.246C9.94905 14.1003 10.0031 13.9593 10.1025 13.8526L15.8916 8.06263H0.75C0.600816 8.06263 0.457742 8.00337 0.352252 7.89788C0.246763 7.79239 0.1875 7.64931 0.1875 7.50013C0.1875 7.35094 0.246763 7.20787 0.352252 7.10238C0.457742 6.99689 0.600816 6.93763 0.75 6.93763H15.8916L10.1025 1.14763C10.0031 1.041 9.94905 0.899963 9.95162 0.754237C9.95419 0.608511 10.0132 0.469472 10.1163 0.366413C10.2193 0.263353 10.3584 0.204319 10.5041 0.201748C10.6498 0.199177 10.7909 0.253269 10.8975 0.352629L17.6475 7.10263C17.7528 7.2081 17.812 7.35107 17.812 7.50013C17.812 7.64919 17.7528 7.79216 17.6475 7.89763Z" fill="black"/>
</svg>
