<svg
            xmlns="http://www.w3.org/2000/svg"
           id="feedback-dislike"
          >
            <path
              d="M19.9998 19.1667L19.3425 19.2761C19.3266 19.1806 19.3317 19.0828 19.3575 18.9896C19.3832 18.8963 19.4289 18.8097 19.4915 18.7358C19.554 18.662 19.6319 18.6027 19.7197 18.562C19.8075 18.5212 19.9031 18.5001 19.9998 18.5001V19.1667ZM5.33317 19.1667V19.8334C5.15636 19.8334 4.98679 19.7632 4.86177 19.6382C4.73674 19.5131 4.6665 19.3436 4.6665 19.1667H5.33317ZM7.99984 5.16675H23.1465V6.50008H7.99984V5.16675ZM24.7465 19.8334H19.9998V18.5001H24.7465V19.8334ZM20.6572 19.0574L21.7318 25.5041L20.4172 25.7241L19.3425 19.2761L20.6572 19.0574ZM19.7598 27.8334H19.4758V26.5001H19.7598V27.8334ZM15.5918 25.7561L12.2385 20.7241L13.3478 19.9841L16.7012 25.0161L15.5918 25.7561ZM10.5732 19.8334H5.33317V18.5001H10.5732V19.8334ZM4.6665 19.1667V8.50008H5.99984V19.1667H4.6665ZM26.4158 7.84675L28.0158 15.8467L26.7092 16.1081L25.1092 8.10808L26.4158 7.84675ZM12.2385 20.7241C12.0559 20.4501 11.8071 20.2255 11.5168 20.0701C11.2266 19.9147 10.9024 19.8334 10.5732 19.8334V18.5001C11.1219 18.5001 11.6621 18.6355 12.1459 18.8944C12.6297 19.1533 13.0434 19.5276 13.3478 19.9841L12.2385 20.7241ZM21.7318 25.5041C21.7797 25.7907 21.7645 26.0843 21.6874 26.3644C21.6102 26.6445 21.473 26.9045 21.2851 27.1262C21.0973 27.3479 20.8635 27.526 20.5998 27.6482C20.3362 27.7703 20.0504 27.8335 19.7598 27.8334V26.5001C19.8567 26.5002 19.9511 26.4793 20.0391 26.4386C20.1271 26.398 20.2051 26.3387 20.2678 26.2648C20.3305 26.191 20.3763 26.1043 20.4021 26.0109C20.4279 25.9175 20.4331 25.8197 20.4172 25.7241L21.7318 25.5041ZM24.7465 18.5001C25.0424 18.5001 25.3346 18.4345 25.6021 18.3079C25.8695 18.1813 26.1056 17.997 26.2932 17.7682C26.4808 17.5394 26.6153 17.2718 26.687 16.9847C26.7587 16.6976 26.7672 16.3982 26.7092 16.1081L28.0158 15.8467C28.1125 16.3302 28.0993 16.829 27.9799 17.3073C27.8606 17.7856 27.6366 18.2314 27.3241 18.6128C27.0117 18.9941 26.6186 19.3013 26.1731 19.5124C25.7276 19.7235 25.2408 19.8331 24.7478 19.8334V18.5001H24.7465ZM23.1465 5.16675C23.9173 5.1666 24.6643 5.43356 25.2604 5.92219C25.8564 6.41083 26.2648 7.09093 26.4158 7.84675L25.1092 8.10808C25.0185 7.65441 24.7733 7.24621 24.4155 6.95301C24.0576 6.65981 23.6091 6.49974 23.1465 6.50008V5.16675ZM19.4745 27.8334C18.7061 27.8337 17.9496 27.6442 17.272 27.2818C16.5944 26.9194 16.0168 26.3953 15.5905 25.7561L16.6998 25.0161C17.0043 25.4726 17.4167 25.8469 17.9005 26.1058C18.3842 26.3646 18.9245 26.5001 19.4732 26.5001V27.8334H19.4745ZM7.99984 6.50008C7.4694 6.50008 6.9607 6.71079 6.58562 7.08587C6.21055 7.46094 5.99984 7.96965 5.99984 8.50008H4.6665C4.6665 7.61603 5.01769 6.76818 5.64281 6.14306C6.26794 5.51794 7.11578 5.16675 7.99984 5.16675V6.50008Z"
              fill="black"
            />
            <path d="M10.6665 19.1668V5.8335" stroke="black" />
          </svg>
