<svg xmlns="http://www.w3.org/2000/svg" width="73" height="73" viewBox="0 0 73 73" fill="none">
<path d="M66.5 19.2499V34.5499C66.5 38.3599 65.24 41.5699 62.99 43.7899C60.77 46.0399 57.56 47.2999 53.75 47.2999V52.7299C53.75 54.7699 51.47 55.9999 49.79 54.8599L46.88 52.9399C47.15 52.0099 47.27 50.9899 47.27 49.9099V37.7C47.27 31.58 43.19 27.4999 37.07 27.4999H16.7C16.28 27.4999 15.89 27.53 15.5 27.56V19.2499C15.5 11.5999 20.6 6.49994 28.25 6.49994H53.75C61.4 6.49994 66.5 11.5999 66.5 19.2499Z" fill="white" stroke="#4C4C4C" stroke-width="1.5" stroke-miterlimit="10" stroke-linecap="round" stroke-linejoin="round"/>
<path d="M47.27 37.7001V49.9099C47.27 50.9899 47.15 52.0099 46.88 52.9399C45.77 57.3499 42.11 60.11 37.07 60.11H28.91L19.85 66.14C18.5 67.07 16.7 66.08 16.7 64.46V60.11C13.64 60.11 11.09 59.09 9.32001 57.32C7.52001 55.52 6.5 52.9699 6.5 49.9099V37.7001C6.5 32.0001 10.04 28.0701 15.5 27.5601C15.89 27.5301 16.28 27.5 16.7 27.5H37.07C43.19 27.5 47.27 31.5801 47.27 37.7001Z" fill="white" stroke="#4C4C4C" stroke-width="1.5" stroke-miterlimit="10" stroke-linecap="round" stroke-linejoin="round"/>
</svg>
