<svg id="cart"  xmlns="http://www.w3.org/2000/svg">
            <path
              d="M3 10.8125H28L26.6953 25.1578C26.6248 25.9342 26.2665 26.6563 25.6909 27.1821C25.1154 27.708 24.364 27.9997 23.5844 28H7.41563C6.636 27.9997 5.88464 27.708 5.30906 27.1821C4.73348 26.6563 4.37524 25.9342 4.30469 25.1578L3 10.8125Z"
              stroke="black"
              stroke-linejoin="round"
            />
            <path
              d="M9.25 13.9375V9.25C9.25 7.5924 9.90848 6.00268 11.0806 4.83058C12.2527 3.65848 13.8424 3 15.5 3C17.1576 3 18.7473 3.65848 19.9194 4.83058C21.0915 6.00268 21.75 7.5924 21.75 9.25V13.9375"
              stroke="black"
              stroke-linecap="round"
            />
          </svg>
