<svg
            xmlns="http://www.w3.org/2000/svg"
          id="feedback-like"
          >
            <path
              d="M20.0001 13.8334L19.3427 13.7241C19.3269 13.8195 19.332 13.9173 19.3577 14.0106C19.3834 14.1039 19.4291 14.1905 19.4917 14.2643C19.5542 14.3382 19.6321 14.3975 19.7199 14.4382C19.8077 14.4789 19.9033 14.5 20.0001 14.5001V13.8334ZM5.33341 13.8334V13.1667C5.1566 13.1667 4.98703 13.237 4.86201 13.362C4.73699 13.487 4.66675 13.6566 4.66675 13.8334H5.33341ZM8.00008 27.8334H23.1467V26.5001H8.00008V27.8334ZM24.7467 13.1667H20.0001V14.5001H24.7467V13.1667ZM20.6574 13.9427L21.7321 7.49608L20.4174 7.27608L19.3427 13.7241L20.6574 13.9427ZM19.7601 5.16675H19.4761V6.50008H19.7601V5.16675ZM15.5921 7.24541L12.2374 12.2761L13.3467 13.0161L16.7001 7.98408L15.5907 7.24541H15.5921ZM10.5734 13.1667H5.33341V14.5001H10.5734V13.1667ZM4.66675 13.8334V24.5001H6.00008V13.8334H4.66675ZM26.4161 25.1534L28.0161 17.1534L26.7094 16.8921L25.1094 24.8921L26.4161 25.1534ZM12.2374 12.2761C12.0548 12.55 11.8074 12.7747 11.5171 12.93C11.2268 13.0854 10.9027 13.1667 10.5734 13.1667V14.5001C11.1221 14.5001 11.6623 14.3646 12.1461 14.1058C12.6299 13.8469 13.0423 13.4726 13.3467 13.0161L12.2374 12.2761ZM21.7321 7.49608C21.7799 7.20959 21.7648 6.91613 21.6877 6.63609C21.6106 6.35605 21.4735 6.09615 21.2858 5.87447C21.0982 5.65279 20.8644 5.47465 20.601 5.35243C20.3375 5.23021 20.0505 5.16685 19.7601 5.16675V6.50008C19.857 6.49993 19.9527 6.5209 20.0407 6.56153C20.1286 6.60216 20.2067 6.66147 20.2694 6.73534C20.3321 6.8092 20.3779 6.89584 20.4037 6.98923C20.4295 7.08262 20.4346 7.18051 20.4187 7.27608L21.7321 7.49608ZM24.7467 14.5001C25.0426 14.5001 25.3349 14.5657 25.6023 14.6923C25.8698 14.8188 26.1058 15.0032 26.2934 15.232C26.4811 15.4608 26.6156 15.7284 26.6873 16.0154C26.759 16.3025 26.7674 16.6019 26.7094 16.8921L28.0161 17.1534C28.1127 16.67 28.0996 16.1712 27.9802 15.6929C27.8608 15.2146 27.6368 14.7687 27.3244 14.3874C27.0119 14.0061 26.6188 13.6988 26.1733 13.4878C25.7278 13.2767 25.2411 13.167 24.7481 13.1667V14.5001H24.7467ZM23.1467 27.8334C23.9175 27.8336 24.6645 27.5666 25.2606 27.078C25.8567 26.5893 26.265 25.9092 26.4161 25.1534L25.1094 24.8921C25.0187 25.3458 24.7736 25.754 24.4157 26.0472C24.0578 26.3404 23.6094 26.5004 23.1467 26.5001V27.8334ZM19.4747 5.16675C18.7062 5.16663 17.9496 5.35631 17.272 5.71894C16.5945 6.08157 16.0169 6.60591 15.5907 7.24541L16.7001 7.98408C17.0045 7.52757 17.4169 7.15327 17.9007 6.89439C18.3845 6.63552 18.9247 6.50007 19.4734 6.50008V5.16675H19.4747ZM8.00008 26.5001C7.46965 26.5001 6.96094 26.2894 6.58587 25.9143C6.21079 25.5392 6.00008 25.0305 6.00008 24.5001H4.66675C4.66675 24.9378 4.75297 25.3713 4.92048 25.7757C5.088 26.1801 5.33353 26.5476 5.64306 26.8571C5.95259 27.1666 6.32005 27.4122 6.72447 27.5797C7.12889 27.7472 7.56234 27.8334 8.00008 27.8334V26.5001Z"
              fill="black"
            />
            <path d="M10.6667 13.8335V27.1668" stroke="black" />
          </svg>
