<svg
        xmlns="http://www.w3.org/2000/svg"
        id="flag"
      >
        <g clip-path="url(#clip0_421_659)">
          <path
            d="M20.4444 3.19446H2.55556C1.87778 3.19446 1.22776 3.4637 0.748505 3.94296C0.269245 4.42222 0 5.07224 0 5.75001L0 11.5H23V5.75001C23 5.07224 22.7308 4.42222 22.2515 3.94296C21.7722 3.4637 21.1222 3.19446 20.4444 3.19446Z"
            fill="#005BBB"
          />
          <path
            d="M23 17.25C23 17.9278 22.7308 18.5778 22.2515 19.0571C21.7722 19.5363 21.1222 19.8056 20.4444 19.8056H2.55556C1.87778 19.8056 1.22776 19.5363 0.748505 19.0571C0.269245 18.5778 0 17.9278 0 17.25V11.5H23V17.25Z"
            fill="#FFD500"
          />
        </g>
        <defs>
          <clipPath id="clip0_421_659">
            <rect width="23" height="23" fill="white" />
          </clipPath>
        </defs>
      </svg> 
