 <svg
              xmlns="http://www.w3.org/2000/svg"
              id="rating"
            >
              <path
                d="M19.9993 13.3334L19.342 13.2241C19.3261 13.3195 19.3312 13.4173 19.357 13.5106C19.3827 13.6039 19.4284 13.6905 19.491 13.7643C19.5535 13.8382 19.6314 13.8975 19.7192 13.9382C19.807 13.9789 19.9026 14 19.9993 14.0001V13.3334ZM5.33268 13.3334V12.6667C5.15587 12.6667 4.9863 12.737 4.86128 12.862C4.73625 12.987 4.66602 13.1566 4.66602 13.3334H5.33268ZM7.99935 27.3334H23.146V26.0001H7.99935V27.3334ZM24.746 12.6667H19.9993V14.0001H24.746V12.6667ZM20.6567 13.4427L21.7313 6.99608L20.4167 6.77608L19.342 13.2241L20.6567 13.4427ZM19.7593 4.66675H19.4753V6.00008H19.7593V4.66675ZM15.5913 6.74541L12.2367 11.7761L13.346 12.5161L16.6993 7.48408L15.59 6.74541H15.5913ZM10.5727 12.6667H5.33268V14.0001H10.5727V12.6667ZM4.66602 13.3334V24.0001H5.99935V13.3334H4.66602ZM26.4153 24.6534L28.0153 16.6534L26.7087 16.3921L25.1087 24.3921L26.4153 24.6534ZM12.2367 11.7761C12.0541 12.05 11.8066 12.2747 11.5164 12.43C11.2261 12.5854 10.9019 12.6667 10.5727 12.6667V14.0001C11.1214 14.0001 11.6616 13.8646 12.1454 13.6058C12.6292 13.3469 13.0416 12.9726 13.346 12.5161L12.2367 11.7761ZM21.7313 6.99608C21.7792 6.70959 21.764 6.41613 21.687 6.13609C21.6099 5.85605 21.4728 5.59615 21.2851 5.37447C21.0974 5.15279 20.8637 4.97465 20.6002 4.85243C20.3367 4.73021 20.0498 4.66685 19.7593 4.66675V6.00008C19.8562 5.99993 19.952 6.0209 20.0399 6.06153C20.1279 6.10216 20.2059 6.16147 20.2686 6.23534C20.3313 6.3092 20.3772 6.39584 20.403 6.48923C20.4288 6.58262 20.4339 6.68051 20.418 6.77608L21.7313 6.99608ZM24.746 14.0001C25.0419 14.0001 25.3341 14.0657 25.6016 14.1923C25.869 14.3188 26.1051 14.5032 26.2927 14.732C26.4803 14.9608 26.6148 15.2284 26.6865 15.5154C26.7582 15.8025 26.7667 16.1019 26.7087 16.3921L28.0153 16.6534C28.112 16.17 28.0988 15.6712 27.9795 15.1929C27.8601 14.7146 27.6361 14.2687 27.3237 13.8874C27.0112 13.5061 26.6181 13.1988 26.1726 12.9878C25.7271 12.7767 25.2403 12.667 24.7473 12.6667V14.0001H24.746ZM23.146 27.3334C23.9168 27.3336 24.6638 27.0666 25.2599 26.578C25.8559 26.0893 26.2643 25.4092 26.4153 24.6534L25.1087 24.3921C25.018 24.8458 24.7729 25.254 24.415 25.5472C24.0571 25.8404 23.6087 26.0004 23.146 26.0001V27.3334ZM19.474 4.66675C18.7055 4.66663 17.9489 4.85631 17.2713 5.21894C16.5937 5.58157 16.0162 6.10591 15.59 6.74541L16.6993 7.48408C17.0038 7.02757 17.4162 6.65327 17.9 6.39439C18.3838 6.13552 18.924 6.00007 19.4727 6.00008V4.66675H19.474ZM7.99935 26.0001C7.46892 26.0001 6.96021 25.7894 6.58513 25.4143C6.21006 25.0392 5.99935 24.5305 5.99935 24.0001H4.66602C4.66602 24.4378 4.75223 24.8713 4.91975 25.2757C5.08727 25.6801 5.3328 26.0476 5.64233 26.3571C5.95185 26.6666 6.31932 26.9122 6.72374 27.0797C7.12816 27.2472 7.56161 27.3334 7.99935 27.3334V26.0001Z"
                fill="black"
              />
              <path d="M10.666 13.3334V26.6667" stroke="black" />
            </svg>
