<svg
          xmlns="http://www.w3.org/2000/svg"
          width="40"
          height="40"
          viewBox="0 0 40 40"
          fill="none"
        >
          <path
            d="M6.83745 14.3373C7.01323 14.1618 7.25151 14.0632 7.49995 14.0632C7.74838 14.0632 7.98667 14.1618 8.16245 14.3373L19.9999 26.1733L31.8374 14.3373C32.0152 14.1717 32.2502 14.0816 32.4931 14.0859C32.736 14.0902 32.9677 14.1886 33.1395 14.3603C33.3112 14.5321 33.4096 14.7638 33.4139 15.0067C33.4182 15.2496 33.328 15.4846 33.1624 15.6623L20.6624 28.1623C20.4867 28.3379 20.2484 28.4365 19.9999 28.4365C19.7515 28.4365 19.5132 28.3379 19.3374 28.1623L6.83745 15.6623C6.66188 15.4866 6.56327 15.2483 6.56327 14.9998C6.56327 14.7514 6.66188 14.5131 6.83745 14.3373Z"
            fill="#05020E"
          />
        </svg>
