 <svg xmlns="http://www.w3.org/2000/svg" id="star">
                <path
                  d="M29.423 12.3163C29.3344 12.0346 29.1634 11.7859 28.9322 11.6023C28.7009 11.4187 28.4199 11.3086 28.1255 11.2863L20.6942 10.6438C20.6039 10.6354 20.5175 10.6025 20.4444 10.5488C20.3713 10.4951 20.3142 10.4225 20.2792 10.3388L17.3755 3.42001C17.262 3.14785 17.0706 2.91535 16.8252 2.75181C16.5798 2.58827 16.2916 2.50101 15.9967 2.50101C15.7019 2.50101 15.4136 2.58827 15.1682 2.75181C14.9229 2.91535 14.7314 3.14785 14.618 3.42001L11.718 10.3388C11.683 10.4225 11.6259 10.4951 11.5528 10.5488C11.4797 10.6025 11.3933 10.6354 11.303 10.6438L3.87547 11.2863C3.58045 11.3104 3.29918 11.4214 3.06708 11.6051C2.83498 11.7888 2.66242 12.0371 2.57114 12.3187C2.47986 12.6003 2.47394 12.9026 2.55412 13.1875C2.6343 13.4725 2.797 13.7273 3.02172 13.92L8.65922 18.8388C8.72962 18.8991 8.78187 18.9778 8.81012 19.0661C8.83838 19.1544 8.84153 19.2488 8.81922 19.3388L7.12547 26.6525C7.05567 26.9411 7.07398 27.244 7.17804 27.5221C7.28209 27.8001 7.46712 28.0406 7.70922 28.2125C7.94586 28.3873 8.22949 28.487 8.52342 28.4988C8.81736 28.5106 9.10807 28.434 9.35797 28.2788L15.7455 24.4038C15.8221 24.3565 15.9104 24.3315 16.0005 24.3315C16.0905 24.3315 16.1788 24.3565 16.2555 24.4038L22.643 28.2788C22.8955 28.4301 23.1869 28.5038 23.481 28.4907C23.7751 28.4776 24.0589 28.3782 24.2969 28.2049C24.5349 28.0317 24.7167 27.7922 24.8196 27.5164C24.9224 27.2406 24.9419 26.9406 24.8755 26.6538L23.1855 19.3363C23.1632 19.2463 23.1663 19.1519 23.1946 19.0636C23.2228 18.9753 23.2751 18.8966 23.3455 18.8363L28.983 13.9175C29.2073 13.7247 29.3691 13.4693 29.4475 13.1841C29.5258 12.8988 29.5173 12.5966 29.423 12.3163ZM28.3255 13.1663L22.688 18.085C22.4816 18.2641 22.328 18.4961 22.2439 18.756C22.1597 19.016 22.1482 19.294 22.2105 19.56L23.9005 26.875C23.9241 26.972 23.9181 27.0738 23.8834 27.1674C23.8486 27.2609 23.7867 27.342 23.7055 27.4C23.6275 27.4578 23.5339 27.4908 23.4369 27.4946C23.3399 27.4984 23.244 27.4728 23.1617 27.4213L16.7742 23.5463C16.5412 23.404 16.2735 23.3287 16.0005 23.3287C15.7275 23.3287 15.4597 23.404 15.2267 23.5463L8.83922 27.4213C8.75697 27.4728 8.66107 27.4984 8.56407 27.4946C8.46706 27.4908 8.37345 27.4578 8.29547 27.4C8.21428 27.342 8.15232 27.2609 8.11757 27.1674C8.08282 27.0738 8.07686 26.972 8.10047 26.875L9.79047 19.5575C9.85277 19.2915 9.84121 19.0135 9.75706 18.7535C9.67291 18.4936 9.51935 18.2616 9.31297 18.0825L3.67547 13.1663C3.59958 13.1011 3.54496 13.0148 3.51866 12.9183C3.49237 12.8218 3.49561 12.7196 3.52797 12.625C3.55814 12.5319 3.61497 12.4497 3.6914 12.3886C3.76784 12.3275 3.86052 12.2902 3.95797 12.2813L11.3892 11.6388C11.661 11.6145 11.921 11.5166 12.1412 11.3556C12.3615 11.1946 12.5337 10.9766 12.6392 10.725L15.5417 3.80501C15.5808 3.71628 15.6449 3.64085 15.7262 3.58789C15.8074 3.53493 15.9023 3.50673 15.9992 3.50673C16.0962 3.50673 16.1911 3.53493 16.2723 3.58789C16.3535 3.64085 16.4176 3.71628 16.4567 3.80501L19.3592 10.725C19.4648 10.9766 19.6369 11.1946 19.8572 11.3556C20.0775 11.5166 20.3375 11.6145 20.6092 11.6388L28.0405 12.2813C28.1379 12.2902 28.2306 12.3275 28.307 12.3886C28.3835 12.4497 28.4403 12.5319 28.4705 12.625C28.5031 12.7194 28.5068 12.8214 28.4809 12.9179C28.4551 13.0143 28.4009 13.1008 28.3255 13.1663Z"
                  fill="black"
                />
              </svg>
