<svg
            xmlns="http://www.w3.org/2000/svg"
            id="attach"
          >
            <path
              d="M20.967 0.868455C19.8087 0.926205 18.6598 1.37796 17.7065 2.33121L1.65307 18.3847C0.682574 19.3551 0.328324 20.5563 0.452636 21.6753C0.577011 22.7943 1.14345 23.8306 1.9397 24.6269C2.73582 25.4231 3.7722 25.9896 4.89114 26.114C6.0102 26.2383 7.21132 25.884 8.18176 24.9136L21.9419 11.1536C23.2543 9.84108 23.1574 8.13358 22.2286 7.2047C21.2998 6.27595 19.5921 6.17889 18.2797 7.49133L9.10645 16.6645L9.90195 17.4601L19.0754 8.28677C20.0563 7.30583 20.9287 7.49552 21.4332 8.00002C21.9378 8.50458 22.1274 9.37702 21.1464 10.358L7.38645 24.118C6.63695 24.8675 5.83145 25.0866 5.01551 24.9959C4.19951 24.9053 3.37239 24.4684 2.7352 23.8313C2.09807 23.1941 1.66132 22.367 1.5707 21.551C1.48007 20.735 1.69907 19.9295 2.44857 19.18L18.502 3.1267C19.5244 2.10433 20.7003 1.83902 21.9344 2.04733C23.1684 2.25571 24.4423 2.98233 25.4466 3.98671C26.4509 4.99096 27.1776 6.26483 27.3859 7.49889C27.5943 8.73302 27.3289 9.90889 26.3066 10.9314L12.5466 24.6914L13.3419 25.4868L27.1021 11.7267C28.3731 10.4558 28.7527 8.83671 28.4952 7.31158C28.2378 5.78646 27.3878 4.33689 26.2421 3.1912C25.0964 2.04545 23.6469 1.19558 22.1218 0.93808C21.7405 0.873705 21.3533 0.849205 20.9671 0.868455H20.967Z"
              fill="black"
            />
          </svg>
