<svg xmlns="http://www.w3.org/2000/svg" width="148" height="100" viewBox="0 0 248 200" fill="none">
  <path d="M248 0H0V200H248V0Z" fill="white"/>
  <path d="M124 199.5C178.952 199.5 223.5 154.952 223.5 100C223.5 45.0477 178.952 0.5 124 0.5C69.0477 0.5 24.5 45.0477 24.5 100C24.5 154.952 69.0477 199.5 124 199.5Z" stroke="black"/>
  <path d="M248 66H0V135H248V66Z" fill="white"/>
  <path d="M14.8799 115V87H16.9199V113.16H33.0399V115H14.8799ZM35.5958 122.92C34.6358 122.92 33.7292 122.76 32.8758 122.44C32.0492 122.12 31.3425 121.653 30.7558 121.04L31.7558 119.52C32.2892 120.08 32.8625 120.493 33.4758 120.76C34.1158 121.027 34.8358 121.16 35.6358 121.16C36.5958 121.16 37.4358 120.893 38.1558 120.36C38.9025 119.827 39.5958 118.853 40.2358 117.44L41.6758 114.24L41.9558 113.88L50.7958 94.12H52.8358L42.1158 117.84C41.5558 119.12 40.9425 120.12 40.2758 120.84C39.6358 121.587 38.9292 122.12 38.1558 122.44C37.3825 122.76 36.5292 122.92 35.5958 122.92ZM41.6358 115.52L31.9558 94.12H34.0758L42.8758 113.76L41.6358 115.52ZM58.7287 109.24L58.7687 106.72L72.5687 94.12H75.1287L65.9687 102.72L64.7687 103.72L58.7287 109.24ZM57.2087 115V85.32H59.2087V115H57.2087ZM73.5286 115L64.4087 103.56L65.7687 102.08L76.0087 115H73.5286ZM82.2443 109.24L82.2843 106.72L96.0843 94.12H98.6443L89.4843 102.72L88.2843 103.72L82.2443 109.24ZM80.7243 115V85.32H82.7243V115H80.7243ZM97.0443 115L87.9243 103.56L89.2843 102.08L99.5243 115H97.0443ZM111.9 115.16C109.793 115.16 107.926 114.707 106.3 113.8C104.7 112.893 103.433 111.64 102.5 110.04C101.593 108.44 101.14 106.613 101.14 104.56C101.14 102.48 101.566 100.653 102.42 99.08C103.3 97.48 104.5 96.2267 106.02 95.32C107.54 94.4133 109.246 93.96 111.14 93.96C113.033 93.96 114.726 94.4 116.22 95.28C117.74 96.16 118.926 97.4 119.78 99C120.66 100.573 121.1 102.4 121.1 104.48C121.1 104.56 121.086 104.653 121.06 104.76C121.06 104.84 121.06 104.933 121.06 105.04H102.62V103.48H119.98L119.18 104.24C119.206 102.613 118.86 101.16 118.14 99.88C117.446 98.5733 116.5 97.56 115.3 96.84C114.1 96.0933 112.713 95.72 111.14 95.72C109.593 95.72 108.206 96.0933 106.98 96.84C105.78 97.56 104.833 98.5733 104.14 99.88C103.446 101.16 103.1 102.627 103.1 104.28V104.64C103.1 106.347 103.473 107.867 104.22 109.2C104.993 110.507 106.046 111.533 107.38 112.28C108.713 113 110.233 113.36 111.94 113.36C113.273 113.36 114.513 113.12 115.66 112.64C116.833 112.16 117.82 111.427 118.62 110.44L119.78 111.76C118.873 112.88 117.726 113.733 116.34 114.32C114.98 114.88 113.5 115.16 111.9 115.16ZM138.2 115V87H140.24V113.16H156.36V115H138.2ZM160.959 115V94.12H162.959V115H160.959ZM161.959 89.04C161.505 89.04 161.119 88.88 160.799 88.56C160.479 88.24 160.319 87.8667 160.319 87.44C160.319 86.9867 160.479 86.6 160.799 86.28C161.119 85.96 161.505 85.8 161.959 85.8C162.439 85.8 162.825 85.96 163.119 86.28C163.439 86.5733 163.599 86.9467 163.599 87.4C163.599 87.8533 163.439 88.24 163.119 88.56C162.825 88.88 162.439 89.04 161.959 89.04ZM180.068 122.92C178.175 122.92 176.375 122.627 174.668 122.04C172.962 121.453 171.575 120.64 170.508 119.6L171.588 118.08C172.628 119.04 173.868 119.787 175.308 120.32C176.775 120.853 178.348 121.12 180.028 121.12C182.828 121.12 184.882 120.467 186.188 119.16C187.522 117.853 188.188 115.8 188.188 113V107.2L188.588 104.08L188.268 100.96V94.12H190.188V112.76C190.188 116.253 189.335 118.813 187.628 120.44C185.948 122.093 183.428 122.92 180.068 122.92ZM179.508 114.24C177.535 114.24 175.762 113.813 174.188 112.96C172.642 112.08 171.402 110.88 170.468 109.36C169.562 107.813 169.108 106.053 169.108 104.08C169.108 102.08 169.562 100.32 170.468 98.8C171.402 97.28 172.642 96.0933 174.188 95.24C175.762 94.3867 177.535 93.96 179.508 93.96C181.402 93.96 183.095 94.3733 184.588 95.2C186.108 96 187.308 97.16 188.188 98.68C189.068 100.173 189.508 101.973 189.508 104.08C189.508 106.16 189.068 107.96 188.188 109.48C187.308 111 186.108 112.173 184.588 113C183.095 113.827 181.402 114.24 179.508 114.24ZM179.668 112.44C181.348 112.44 182.828 112.093 184.108 111.4C185.388 110.68 186.388 109.693 187.108 108.44C187.855 107.16 188.228 105.707 188.228 104.08C188.228 102.427 187.855 100.973 187.108 99.72C186.388 98.4667 185.388 97.4933 184.108 96.8C182.828 96.1067 181.348 95.76 179.668 95.76C178.042 95.76 176.575 96.1067 175.268 96.8C173.988 97.4933 172.975 98.4667 172.228 99.72C171.508 100.973 171.148 102.427 171.148 104.08C171.148 105.707 171.508 107.16 172.228 108.44C172.975 109.693 173.988 110.68 175.268 111.4C176.575 112.093 178.042 112.44 179.668 112.44ZM208.854 93.96C210.561 93.96 212.041 94.2933 213.294 94.96C214.574 95.6 215.561 96.5867 216.254 97.92C216.974 99.2267 217.334 100.853 217.334 102.8V115H215.334V102.96C215.334 100.613 214.734 98.8267 213.534 97.6C212.361 96.3733 210.707 95.76 208.574 95.76C206.947 95.76 205.534 96.0933 204.334 96.76C203.134 97.4267 202.214 98.36 201.574 99.56C200.961 100.76 200.654 102.2 200.654 103.88V115H198.654V85.32H200.654V99.92L200.294 99.28C200.934 97.6267 201.987 96.3333 203.454 95.4C204.921 94.44 206.721 93.96 208.854 93.96ZM231.648 115.16C229.808 115.16 228.395 114.653 227.408 113.64C226.448 112.627 225.968 111.24 225.968 109.48V89.56H227.968V109.28C227.968 110.613 228.301 111.64 228.968 112.36C229.635 113.08 230.595 113.44 231.848 113.44C233.155 113.44 234.235 113.053 235.088 112.28L235.928 113.68C235.395 114.187 234.741 114.56 233.968 114.8C233.221 115.04 232.448 115.16 231.648 115.16ZM222.128 95.84V94.12H234.608V95.84H222.128Z" fill="black"/>
</svg>
