<svg width="32" height="32" viewBox="0 0 32 32" fill="none" xmlns="http://www.w3.org/2000/svg">
<g id="ic:round-sort">
<path id="Vector" d="M5.33333 24H10.6667C11.4 24 12 23.4 12 22.6667C12 21.9333 11.4 21.3333 10.6667 21.3333H5.33333C4.6 21.3333 4 21.9333 4 22.6667C4 23.4 4.6 24 5.33333 24ZM4 9.33333C4 10.0667 4.6 10.6667 5.33333 10.6667H26.6667C27.4 10.6667 28 10.0667 28 9.33333C28 8.6 27.4 8 26.6667 8H5.33333C4.6 8 4 8.6 4 9.33333ZM5.33333 17.3333H18.6667C19.4 17.3333 20 16.7333 20 16C20 15.2667 19.4 14.6667 18.6667 14.6667H5.33333C4.6 14.6667 4 15.2667 4 16C4 16.7333 4.6 17.3333 5.33333 17.3333Z" fill="black"/>
</g>
</svg>
